# xmcd
#
# Track frame offsets:
#	150
#	1432
#	7898
#	29449
#	36739
#	61029
#	62608
#	66502
#	68844
#	70490
#	75148
#	81106
#	85721
#	115763
#	143461
#	149094
#	174239
#	179487
#	184755
#	187250
#	190185
#	194722
#	261210
#
# Disc length: 3495 seconds
# Revision: 1
# Processed by: cddbd v1.5.2PL0 Copyright (c) Steve Scherf et al.
# Submitted via: dBpowerAMP V12.0
#
DISCID=490da517
DTITLE=Hale Dwoskin - The Inner Circle Retreat 03 CD 14
DYEAR=2007
DGENRE=Speech
TTITLE0=Intro Music
TTITLE1=Struggling with Receiving
TTITLE2=Wanting to Know What to Do
TTITLE3=If I Receive There Is Not as Much
TTITLE4=The Feeling It Is Not Working - How the Mind Tries to Hook You In
TTITLE5=Falling Asleep During a Group Release
TTITLE6=Sharing
TTITLE7=Sharing
TTITLE8=Sharing
TTITLE9=Welcome the Doubts
TTITLE10=Sharing
TTITLE11=Sharing
TTITLE12=There Is No Experiencer
TTITLE13=Sharing - Trying to Get Rid of Something
TTITLE14=It Is All the Same Thing
TTITLE15=Pride - Wanting to Get Something
TTITLE16=Sharing - The Suffering Is in the Reaction
TTITLE17=Sharing
TTITLE18=Sharing
TTITLE19=No Belief Is Required for Being
TTITLE20=Sharing
TTITLE21=Can You Find an Ego - About Lesters Talks
TTITLE22=Concluding Music
EXTD=
EXTT0=
EXTT1=
EXTT2=
EXTT3=
EXTT4=
EXTT5=
EXTT6=
EXTT7=
EXTT8=
EXTT9=
EXTT10=
EXTT11=
EXTT12=
EXTT13=
EXTT14=
EXTT15=
EXTT16=
EXTT17=
EXTT18=
EXTT19=
EXTT20=
EXTT21=
EXTT22=
PLAYORDER=
